<svg width="134" height="147" viewBox="0 0 134 147" fill="none" xmlns="http://www.w3.org/2000/svg">
<path d="M101.704 79.6934C101.704 99.3057 85.4474 115.083 65.7044 114.342C47.5303 113.645 32.8429 98.6956 32.4071 80.5215C32.1892 70.8461 35.9373 62.086 42.1261 55.6793L39.9469 53.6309C39.206 52.89 39.206 51.7568 39.9469 51.0595L40.8186 50.1878C41.5159 49.4469 42.6491 49.4469 43.39 50.1878L45.7434 52.4106C49.971 49.0547 55.0266 46.7012 60.5616 45.6552V41.4277H58.6004C55.8983 41.4277 53.8063 39.1178 54.0242 36.4156C54.2857 34.0186 56.4213 32.2753 58.7747 32.2753H75.5105C78.2127 32.2753 80.3482 34.5852 80.0868 37.2873C79.8253 39.6844 77.7333 41.4277 75.3362 41.4277H73.5929V45.6552C89.5878 48.706 101.704 62.7833 101.704 79.6934Z" fill="url(#paint0_radial_114_2504)"/>
<g filter="url(#filter0_b_114_2504)">
<path d="M95.8635 90.3712C95.8635 111.858 77.9945 129.204 56.3338 128.375C36.3729 127.635 20.2036 111.204 19.7678 91.2429C19.5063 80.6522 23.6031 71.0204 30.402 63.96L28.005 61.7373C27.2205 60.9528 27.2205 59.6889 28.005 58.9044L28.9638 57.9456C29.7483 57.1611 31.0122 57.1611 31.7967 57.9456L34.4116 60.3862C39.075 56.7252 44.61 54.1538 50.6681 53.0207V48.3573H48.4889C45.5689 48.3573 43.2154 45.8295 43.5205 42.8223C43.782 40.2509 46.0919 38.3333 48.7068 38.3333H67.0988C70.0189 38.3333 72.3723 40.8175 72.0673 43.8247C71.8494 46.4397 69.4959 48.3573 66.8809 48.3573H64.9633V53.0207C82.5708 56.333 95.8635 71.8049 95.8635 90.3712Z" fill="url(#paint1_radial_114_2504)" fill-opacity="0.9"/>
</g>
<path opacity="0.5" d="M95.8635 90.3712C95.8635 111.858 77.9945 129.204 56.3338 128.375C36.3729 127.635 20.2036 111.204 19.7678 91.2429C19.5063 80.6522 23.6031 71.0204 30.402 63.96L28.005 61.7373C27.2205 60.9528 27.2205 59.6889 28.005 58.9044L28.9638 57.9456C29.7483 57.1611 31.0122 57.1611 31.7967 57.9456L34.4116 60.3862C39.075 56.7252 44.61 54.1538 50.6681 53.0207V48.3573H48.4889C45.5689 48.3573 43.2154 45.8295 43.5205 42.8223C43.782 40.2509 46.0919 38.3333 48.7068 38.3333H67.0988C70.0189 38.3333 72.3723 40.8175 72.0673 43.8247C71.8494 46.4397 69.4959 48.3573 66.8809 48.3573H64.9633V53.0207C82.5708 56.333 95.8635 71.8049 95.8635 90.3712Z" fill="url(#paint2_radial_114_2504)"/>
<path opacity="0.3" d="M95.8635 90.3712C95.8635 111.858 77.9945 129.204 56.3338 128.375C36.3729 127.635 20.2036 111.204 19.7678 91.2429C19.5063 80.6522 23.6031 71.0204 30.402 63.96L28.005 61.7373C27.2205 60.9528 27.2205 59.6889 28.005 58.9044L28.9638 57.9456C29.7483 57.1611 31.0122 57.1611 31.7967 57.9456L34.4116 60.3862C39.075 56.7252 44.61 54.1538 50.6681 53.0207V48.3573H48.4889C45.5689 48.3573 43.2154 45.8295 43.5205 42.8223C43.782 40.2509 46.0919 38.3333 48.7068 38.3333H67.0988C70.0189 38.3333 72.3723 40.8175 72.0673 43.8247C71.8494 46.4397 69.4959 48.3573 66.8809 48.3573H64.9633V53.0207C82.5708 56.333 95.8635 71.8049 95.8635 90.3712Z" fill="url(#paint3_radial_114_2504)"/>
<g opacity="0.75">
<path d="M41.472 107.281C41.8207 107.63 41.8207 108.197 41.472 108.545L37.506 112.555C37.1573 112.86 36.5908 112.86 36.2421 112.555C35.8934 112.206 35.8934 111.64 36.2421 111.291L40.2081 107.281C40.5568 106.933 41.1234 106.933 41.472 107.281Z" fill="#FFE9ED"/>
<path d="M41.472 72.7201C41.8207 73.0687 41.8207 73.6353 41.472 73.984C41.1234 74.2891 40.5568 74.2891 40.2081 73.984L36.2421 69.9744C35.8934 69.6257 35.8934 69.0591 36.2421 68.7105C36.5908 68.3618 37.1573 68.3618 37.506 68.7105L41.472 72.7201Z" fill="#FFE9ED"/>
<path d="M57.2489 66.1827V60.5169C57.2489 60.0375 57.6411 59.6453 58.1206 59.6453C58.6436 59.6453 59.0358 60.0375 59.0358 60.5169V66.1827C59.0358 66.6621 58.6436 67.0544 58.1206 67.0544C57.6411 67.0544 57.2489 66.6621 57.2489 66.1827Z" fill="#FFE9ED"/>
<path d="M34.586 90.6326C34.586 91.1121 34.1937 91.5043 33.6707 91.5043H28.0485C27.5691 91.5043 27.1769 91.1121 27.1769 90.6326C27.1769 90.1532 27.5691 89.761 28.0485 89.761H33.6707C34.1937 89.761 34.586 90.1532 34.586 90.6326Z" fill="#FFE9ED"/>
<path d="M59.0358 115.083V120.705C59.0358 121.228 58.6436 121.62 58.1206 121.62C57.6411 121.62 57.2489 121.228 57.2489 120.705V115.083C57.2489 114.603 57.6411 114.211 58.1206 114.211C58.6436 114.211 59.0358 114.603 59.0358 115.083Z" fill="#FFE9ED"/>
<path d="M89.1082 90.6326C89.1082 91.1121 88.7159 91.5043 88.2365 91.5043H82.5708C82.0913 91.5043 81.6991 91.1121 81.6991 90.6326C81.6991 90.1532 82.0913 89.761 82.5708 89.761H88.2365C88.7159 89.761 89.1082 90.1532 89.1082 90.6326Z" fill="#FFE9ED"/>
<path d="M43.5204 42.8223C43.7819 40.2509 46.0918 38.3333 48.7068 38.3333H67.0988C70.0188 38.3333 72.3723 40.8175 72.0672 43.8247C71.8493 46.4397 69.4958 48.3573 66.8809 48.3573H48.4889C45.5688 48.3573 43.2154 45.8295 43.5204 42.8223Z" fill="#FFE9ED"/>
<path fill-rule="evenodd" clip-rule="evenodd" d="M95.8634 90.3714C95.8634 111.858 77.9944 129.204 56.3337 128.376C36.3728 127.635 20.2035 111.204 19.7677 91.243C19.5062 80.6524 23.603 71.0206 30.4019 63.9602L34.4115 60.3864C39.0749 56.7254 44.6099 54.154 50.6679 53.0209H64.9631C82.5706 56.3332 95.8634 71.8051 95.8634 90.3714ZM90.9821 90.3714C90.9821 72.2845 76.3383 57.5971 58.2078 57.5971C40.1209 57.5971 25.477 72.2845 25.477 90.3714C25.477 108.458 40.1209 123.146 58.2078 123.146C76.3383 123.146 90.9821 108.458 90.9821 90.3714Z" fill="#FFE9ED"/>
<path d="M80.043 68.7105C80.3916 69.0591 80.3916 69.6257 80.043 69.9744L76.0769 73.984C75.7283 74.2891 75.1617 74.2891 74.813 73.984C74.4643 73.6353 74.4643 73.0687 74.813 72.7201L78.779 68.7105C79.1277 68.3618 79.6943 68.3618 80.043 68.7105Z" fill="#FFE9ED"/>
<path d="M80.043 111.291C80.3916 111.64 80.3916 112.206 80.043 112.555C79.6943 112.86 79.1277 112.86 78.779 112.555L74.813 108.545C74.4643 108.197 74.4643 107.63 74.813 107.281C75.1617 106.933 75.7283 106.933 76.0769 107.281L80.043 111.291Z" fill="#FFE9ED"/>
<path fill-rule="evenodd" clip-rule="evenodd" d="M63.0892 90.4584C63.0892 93.1605 60.8665 95.3832 58.1643 95.3832C57.2927 95.3832 56.5082 95.1653 55.8109 94.8166L51.0167 100.657C50.8424 100.831 50.6245 100.962 50.363 100.962C50.1451 100.962 49.9707 100.918 49.7964 100.744C49.4042 100.439 49.3606 99.9158 49.6657 99.5236L54.4162 93.6835C53.6753 92.8118 53.1959 91.6787 53.1959 90.4584C53.1959 88.0177 54.9828 86.0129 57.2927 85.5771V70.2359C57.2927 69.7565 57.6849 69.3643 58.1643 69.3643C58.6437 69.3643 59.036 69.7565 59.036 70.2359V85.5771C61.3459 86.0129 63.0892 88.0177 63.0892 90.4584ZM61.3459 90.4584C61.3459 88.715 59.9076 87.2768 58.1643 87.2768C56.421 87.2768 54.9828 88.715 54.9828 90.4584C54.9828 92.2017 56.421 93.5963 58.1643 93.5963C59.9076 93.5963 61.3459 92.2017 61.3459 90.4584Z" fill="#FFE9ED"/>
</g>
<defs>
<filter id="filter0_b_114_2504" x="16.756" y="35.3333" width="82.1075" height="96.0707" filterUnits="userSpaceOnUse" color-interpolation-filters="sRGB">
<feFlood flood-opacity="0" result="BackgroundImageFix"/>
<feGaussianBlur in="BackgroundImageFix" stdDeviation="1.5"/>
<feComposite in2="SourceAlpha" operator="in" result="effect1_backgroundBlur_114_2504"/>
<feBlend mode="normal" in="SourceGraphic" in2="effect1_backgroundBlur_114_2504" result="shape"/>
</filter>
<radialGradient id="paint0_radial_114_2504" cx="0" cy="0" r="1" gradientUnits="userSpaceOnUse" gradientTransform="translate(85.0988 22.6435) scale(74.6575 74.6575)">
<stop stop-color="#F95961"/>
<stop offset="1" stop-color="#FF1188"/>
</radialGradient>
<radialGradient id="paint1_radial_114_2504" cx="0" cy="0" r="1" gradientUnits="userSpaceOnUse" gradientTransform="translate(27.5691 89.8918) scale(67.5535 67.5535)">
<stop stop-color="#FD2648"/>
<stop offset="1" stop-color="#FF0B85"/>
</radialGradient>
<radialGradient id="paint2_radial_114_2504" cx="0" cy="0" r="1" gradientUnits="userSpaceOnUse" gradientTransform="translate(58.6437 89.1509) scale(48.5513 48.5513)">
<stop offset="0.458333" stop-color="white" stop-opacity="0"/>
<stop offset="1" stop-color="white"/>
</radialGradient>
<radialGradient id="paint3_radial_114_2504" cx="0" cy="0" r="1" gradientUnits="userSpaceOnUse" gradientTransform="translate(63.4378 57.6405) scale(52.5174 52.5174)">
<stop stop-color="white"/>
<stop offset="1" stop-color="white" stop-opacity="0"/>
</radialGradient>
</defs>
</svg>
