<svg width="285" height="346" viewBox="0 0 285 346" fill="none" xmlns="http://www.w3.org/2000/svg">
<g filter="url(#filter0_d_114_2473)">
<path d="M182.62 313.031L101.486 290.336L101.476 290.364L101.343 290.289L101.19 290.271L101.2 290.243L22.2206 260.914C22.2206 260.914 24.0869 212.461 79.9313 188.66C124.471 169.688 130.484 166.647 132.966 160.373C134.646 153.838 131.568 147.844 106.696 106.287C75.5071 54.2062 102.468 13.9388 102.468 13.9388L183.611 36.6056L183.754 36.652L183.897 36.6985L262.867 66.0557C262.867 66.0557 261.01 114.48 205.166 138.282C160.617 157.282 154.603 160.323 152.122 166.597C150.441 173.132 153.52 179.126 178.401 220.654C209.59 272.735 182.62 313.031 182.62 313.031Z" fill="#80D9FF"/>
<path d="M193.152 278.963C193.043 278.78 192.937 278.588 192.834 278.386C191.076 274.748 190.949 270.566 190.196 266.56C187.332 251.247 175.889 239.184 165.146 227.885C154.412 216.558 143.345 203.922 141.649 188.419C139.687 170.428 151.166 153.389 165.341 142.159C179.517 130.928 196.481 123.859 211.694 114.103C223.114 106.781 233.937 97.4014 240.186 85.1754C242.94 79.8116 243.245 77.3184 240.857 72.1171C238.643 67.3519 238.436 62.5429 241.349 58.0525L262.867 66.0557C262.867 66.0557 261.01 114.48 205.166 138.282C160.617 157.282 154.603 160.322 152.122 166.597C150.441 173.132 153.52 179.126 178.401 220.654C191.805 243.027 194.477 263.209 193.152 278.963Z" fill="#48B8E8"/>
<path d="M165.86 259.253C171.098 273.094 173.519 288.895 167.738 302.505C166.916 304.451 165.941 306.284 164.832 308.042L101.486 290.336L101.476 290.364L101.343 290.289L101.19 290.271L101.2 290.243L36.7787 266.308C36.9445 255.583 40.6562 243.576 44.0608 236.21C47.8857 227.844 53.3896 220.244 60.3125 214.211C72.911 203.164 89.0474 197.28 103.915 189.561C118.754 181.833 133.436 170.988 138.61 155.063C143.013 141.415 139.619 126.372 133.825 113.268C128.031 100.164 119.925 88.1419 114.358 74.9218C109.663 63.7867 106.813 51.5442 108.671 39.5987C109.905 31.8126 113.422 24.1993 118.816 18.4921L183.611 36.6055L183.754 36.652L183.897 36.6984L234.208 55.4162C241.174 66.2774 244.656 79.1996 241.661 91.6291C237.762 107.811 223.954 119.762 209.345 127.754C197.188 134.425 184.019 139.155 171.978 146.054C159.957 152.99 148.755 162.658 143.986 175.681C138.872 189.572 141.815 205.226 147.281 218.951C152.738 232.704 160.621 245.413 165.86 259.253Z" fill="#BDEBFF"/>
<path d="M106.405 66.7111C106.405 66.7111 132.04 83.5436 166.645 89.6982C201.288 95.8334 230.624 114.311 230.624 114.311C230.624 114.311 212.421 128.406 193.899 136.865C175.405 145.334 154.005 149.128 148.207 168.138C143.477 183.671 137.341 201.971 135.23 208.176C134.84 209.377 133.523 210.024 132.322 209.634C131.093 209.234 130.446 207.918 130.836 206.717L140.052 178.354C140.442 177.153 139.757 175.856 138.556 175.465C137.355 175.075 136.039 175.722 135.649 176.923L120.562 223.356C120.079 224.843 118.488 225.653 117.001 225.17C115.514 224.687 114.675 223.087 115.158 221.6L135.033 168.505L137.951 159.622C138.318 159.077 138.417 158.382 138.27 157.765C137.217 153.029 132.519 132.853 127.488 125.086C121.764 116.24 99.9275 93.8459 97.0449 66.0406C97.0449 66.0406 103.053 64.6735 106.405 66.7111Z" fill="#F9BF3B"/>
<path d="M115.158 221.6L134.897 166.88L136.665 160.563C138.821 153.93 136.254 150.251 134.473 143.477C132.827 137.157 130.422 129.58 127.488 125.086C121.764 116.24 99.9275 93.8459 97.0449 66.0406C97.0449 66.0406 103.053 64.6735 106.405 66.7111C106.405 66.7111 110.857 69.6435 118.549 73.502C119.169 77.5283 119.59 81.5846 120.828 85.5587C122.777 91.8185 125.627 97.8339 129.224 103.302C133.177 109.328 138.067 114.805 141.178 121.284C148.103 135.577 145.482 152.301 142.103 167.956C141.625 170.204 140.424 172.247 138.696 173.772C138.865 174.417 138.994 175.06 139.081 175.699C138.718 175.455 138.289 175.315 137.776 175.338C136.778 175.393 135.909 176.123 135.602 177.066L120.562 223.356C120.079 224.843 118.488 225.653 117.001 225.17C115.514 224.687 114.675 223.087 115.158 221.6Z" fill="#F98C0F"/>
<path d="M137.188 189.309C136.655 190.463 136.016 191.552 135.397 192.678L139.346 180.527C139.188 183.542 138.46 186.561 137.188 189.309Z" fill="#F98C0F"/>
<path d="M132.322 209.634C131.093 209.234 130.446 207.918 130.836 206.717L132.313 202.171C132.4 203.558 132.819 204.895 133.664 205.992C134.173 206.663 134.766 207.172 135.388 207.69C135.332 207.861 135.279 208.023 135.23 208.176C134.84 209.377 133.523 210.024 132.322 209.634Z" fill="#F98C0F"/>
<g style="mix-blend-mode:soft-light">
<path d="M106.012 38.7347C109.412 35.8568 114.698 35.7406 117.465 39.5794C121.039 44.534 120.292 55.102 121.031 61.0003C122.015 68.8013 123.003 76.5928 123.994 84.3747C124.306 86.7206 124.451 89.486 122.695 91.0966C121.421 92.2946 119.396 92.3955 117.728 91.7902C116.06 91.1849 114.71 89.9878 113.474 88.7327C105.637 80.8443 100.811 70.0144 100.156 58.8961C99.7842 52.4531 100.713 43.2718 106.012 38.7347Z" fill="white"/>
</g>
<path d="M115.312 70.3321C114.513 72.791 111.871 74.1135 109.44 73.3239C106.981 72.5249 105.65 69.9111 106.448 67.4522C107.238 65.0219 109.861 63.6615 112.32 64.4605C114.75 65.2501 116.102 67.9018 115.312 70.3321Z" fill="white"/>
<g style="mix-blend-mode:soft-light">
<path d="M65.4032 204.77C68.5231 202.465 75.17 196.406 79.2185 196.204C85.9853 195.905 83.051 203.866 80.3079 206.958C71.4983 217.013 62.6792 227.066 53.8505 237.115C52.3332 238.867 50.1039 240.766 48.0146 239.803C45.868 238.821 45.8928 235.826 46.408 233.559C49.0497 222.121 56.0159 211.772 65.4032 204.77Z" fill="white"/>
</g>
<path d="M262.471 68.9298L101.099 16.497C98.1254 15.5309 96.5041 12.3488 97.4703 9.37524C98.4364 6.4017 101.618 4.78036 104.592 5.74652L265.964 58.1793C268.937 59.1455 270.559 62.3276 269.592 65.3011C268.626 68.2746 265.444 69.896 262.471 68.9298Z" fill="#454A55"/>
<path d="M262.471 68.9298L260.098 68.1588C257.124 67.1926 255.474 64.0012 256.44 61.0277C257.406 58.0542 260.617 56.4421 263.591 57.4083L265.964 58.1793C268.937 59.1455 270.559 62.3276 269.592 65.3011C268.626 68.2746 265.444 69.896 262.471 68.9298Z" fill="#454A55"/>
<path d="M118.661 237.279C118.048 239.166 116.041 240.189 114.182 239.585C112.324 238.982 111.301 236.974 111.914 235.087C112.518 233.228 114.525 232.205 116.384 232.809C118.242 233.413 119.265 235.421 118.661 237.279Z" fill="#F9BF3B"/>
<path d="M113.951 232.904C115.615 234.203 116.855 236.029 118.708 237.136C118.689 237.194 118.674 237.241 118.661 237.279C118.048 239.166 116.041 240.189 114.182 239.586C112.324 238.982 111.301 236.974 111.914 235.087C112.248 234.058 113.012 233.263 113.951 232.904Z" fill="#F98C0F"/>
<path d="M121.592 193.819C121.044 195.506 119.226 196.433 117.539 195.885C115.881 195.346 114.954 193.527 115.502 191.841C116.041 190.182 117.859 189.256 119.518 189.795C121.205 190.343 122.131 192.161 121.592 193.819Z" fill="#F9BF3B"/>
<path d="M115.502 191.841C115.651 191.383 115.905 190.991 116.197 190.675C116.364 191.33 116.551 192.213 116.657 192.469C117.092 193.369 117.707 194.201 118.463 194.889C118.808 195.19 119.209 195.511 119.535 195.869C118.9 196.074 118.225 196.108 117.539 195.885C115.881 195.346 114.954 193.527 115.502 191.841Z" fill="#F98C0F"/>
<path d="M132.936 226.618C132.453 228.105 130.853 228.944 129.366 228.461C127.879 227.978 127.049 226.349 127.532 224.862C128.015 223.376 129.635 222.574 131.122 223.057C132.608 223.54 133.419 225.131 132.936 226.618Z" fill="#F9BF3B"/>
<path d="M39.4703 262.694C39.4703 262.694 73.4175 267.37 84.2069 255.956C95.025 244.551 126.06 251.284 129.423 267.297C132.815 283.319 165.194 304.303 165.194 304.303L36.7787 266.308L39.4703 262.694Z" fill="#F9BF3B"/>
<path d="M165.194 304.303L36.7787 266.308L39.4703 262.694C39.4703 262.694 73.4175 267.37 84.2069 255.956C84.6096 255.56 85.0282 255.18 85.4627 254.815C88.0978 260.034 93.0173 265.615 102.175 269.633C122.779 278.699 112.804 284.783 149.322 292.444C157.57 299.36 165.194 304.303 165.194 304.303Z" fill="#F98C0F"/>
<g style="mix-blend-mode:soft-light">
<path d="M191.972 128.494C201.57 121.814 212.069 112.17 217.169 101.436C219.004 97.6384 217.061 93.4985 218.622 89.9596C220.94 84.7701 227.904 86.5902 229.783 91.1203C230.849 93.7742 230.558 96.8091 229.761 99.5532C226.803 109.339 217.926 115.938 209.595 121.829C197.535 130.344 185.478 138.849 173.424 147.345C172.024 148.344 170.425 149.374 168.74 149.016C166.121 148.418 165.54 144.562 167.073 142.374C168.616 140.156 171.337 139.175 173.839 138.187C180.266 135.723 186.354 132.454 191.972 128.494Z" fill="white"/>
</g>
<path d="M180.746 320.451L19.3748 268.018C16.4012 267.052 14.7799 263.87 15.746 260.897C16.7122 257.923 19.8943 256.302 22.8678 257.268L184.239 309.701C187.213 310.667 188.834 313.849 187.868 316.822C186.902 319.796 183.72 321.417 180.746 320.451Z" fill="#454A55"/>
<path d="M180.746 320.451L178.373 319.68C175.4 318.714 173.75 315.523 174.716 312.549C175.682 309.576 178.893 307.963 181.866 308.93L184.239 309.701C187.213 310.667 188.834 313.849 187.868 316.822C186.902 319.796 183.72 321.417 180.746 320.451Z" fill="#454A55"/>
</g>
<defs>
<filter id="filter0_d_114_2473" x="0.466797" y="0.467285" width="284.405" height="345.263" filterUnits="userSpaceOnUse" color-interpolation-filters="sRGB">
<feFlood flood-opacity="0" result="BackgroundImageFix"/>
<feColorMatrix in="SourceAlpha" type="matrix" values="0 0 0 0 0 0 0 0 0 0 0 0 0 0 0 0 0 0 127 0" result="hardAlpha"/>
<feOffset dy="10"/>
<feGaussianBlur stdDeviation="7.5"/>
<feComposite in2="hardAlpha" operator="out"/>
<feColorMatrix type="matrix" values="0 0 0 0 0 0 0 0 0 0 0 0 0 0 0 0 0 0 0.25 0"/>
<feBlend mode="normal" in2="BackgroundImageFix" result="effect1_dropShadow_114_2473"/>
<feBlend mode="normal" in="SourceGraphic" in2="effect1_dropShadow_114_2473" result="shape"/>
</filter>
</defs>
</svg>
