<svg width="75" height="75" viewBox="0 0 75 75" fill="none" xmlns="http://www.w3.org/2000/svg">
<path d="M64.8487 49.8487C59.2932 52.3616 53.1037 53.122 47.1051 52.0285C41.1065 50.935 35.5835 48.0396 31.2719 43.7281C26.9604 39.4165 24.065 33.8935 22.9715 27.8949C21.878 21.8962 22.6383 15.7068 25.1512 10.1512C20.7283 12.15 16.8564 15.192 13.8675 19.0161C10.8786 22.8402 8.8621 27.3323 7.99091 32.1071C7.11971 36.8818 7.41985 41.7966 8.86559 46.4299C10.3113 51.0631 12.8595 55.2765 16.2915 58.7085C19.7235 62.1405 23.9369 64.6887 28.5701 66.1344C33.2034 67.5801 38.1182 67.8803 42.8929 67.0091C47.6677 66.1379 52.1598 64.1213 55.9839 61.1325C59.808 58.1436 62.8499 54.2716 64.8487 49.8487Z" fill="#454A55"/>
</svg>
